<?xml version="1.0" encoding="utf-8"?>
<svg xmlns="http://www.w3.org/2000/svg" viewBox="297.8573 308.0071 526.8053 177.688" width="526.805px" height="177.688px" preserveAspectRatio="none"><defs><clipPath clipPathUnits="userSpaceOnUse" id="clipPath11"><path d="M 0,595.276 H 841.89 V 0 H 0 Z" transform="matrix(1.3333333,0,0,-1.3333333,0,793.70133)" id="path11"/></clipPath><clipPath clipPathUnits="userSpaceOnUse" id="clipPath1"><path d="M 223.393,364.271 H 618.497 V 231.005 H 223.393 Z" transform="translate(-421.68191,-364.27071)" id="path1"/></clipPath><clipPath clipPathUnits="userSpaceOnUse" id="clipPath2"><path d="M 223.393,364.271 H 618.497 V 231.005 H 223.393 Z" transform="translate(-421.53281,-350.79721)" id="path2"/></clipPath><clipPath clipPathUnits="userSpaceOnUse" id="clipPath3"><path d="M 223.393,364.271 H 618.497 V 231.005 H 223.393 Z" transform="translate(-421.38381,-337.32371)" id="path3"/></clipPath><clipPath clipPathUnits="userSpaceOnUse" id="clipPath4"><path d="M 223.393,364.271 H 618.497 V 231.005 H 223.393 Z" transform="translate(-421.23481,-323.85011)" id="path4"/></clipPath><clipPath clipPathUnits="userSpaceOnUse" id="clipPath5"><path d="M 223.393,364.271 H 618.497 V 231.005 H 223.393 Z" transform="translate(-421.08581,-310.37661)" id="path5"/></clipPath></defs><g id="layer-MC0"><g id="g10" clip-path="url(#clipPath11)"><path d="m 0,0 c -0.518,-0.012 -1.036,-0.024 -1.553,-0.036 -0.376,-0.763 -0.895,-1.521 -1.104,-2.291 -2.09,-7.69 -3.627,-15.408 -6.338,-23.065 -2.266,-6.404 -5.158,-12.804 -9.09,-19.084 -5.199,-8.304 -19.435,-13.601 -41.029,-15.491 -16.236,-1.42 -32.729,-2.584 -49.273,-3.262 -28.42,-1.165 -56.97,-1.857 -85.461,-2.766 -1.5,-0.048 -2.961,-0.275 -4.441,-0.419 0.015,-0.174 0.029,-0.348 0.044,-0.521 1.379,-0.111 2.745,-0.279 4.139,-0.324 27.503,-0.874 55.025,-1.667 82.509,-2.62 18.89,-0.655 37.677,-1.588 55.916,-3.778 18.759,-2.253 31.632,-6.85 36.701,-14.132 3.976,-5.711 7.04,-11.554 9.126,-17.412 3.033,-8.52 4.808,-17.106 7.166,-25.663 0.223,-0.807 0.775,-1.601 1.175,-2.402 0.48,0.002 0.961,0.004 1.441,0.006 0.419,0.693 1.035,1.378 1.227,2.081 1.536,5.633 2.607,11.289 4.565,16.899 2.747,7.87 5.443,15.758 9.425,23.543 5.053,9.879 21.152,16.007 46.883,17.895 18.867,1.385 37.933,2.479 57.032,3.258 24.761,1.011 49.644,1.577 74.472,2.349 1.109,0.034 2.189,0.211 3.283,0.321 -0.034,0.208 -0.069,0.415 -0.103,0.623 -1.446,0.102 -2.882,0.253 -4.34,0.299 -28.634,0.904 -57.288,1.718 -85.898,2.719 -17.616,0.617 -35.112,1.585 -52.117,3.621 -18.739,2.244 -30.93,6.901 -37.006,14.081 C 11.698,-38.892 9.335,-31.99 7.314,-25.065 5.088,-17.435 3.239,-9.788 1.172,-2.151 0.975,-1.426 0.4,-0.717 0,0 m -0.558,-1.013 c 0.043,-0.069 0.087,-0.137 0.13,-0.205 0.278,-0.435 0.54,-0.847 0.634,-1.195 0.755,-2.789 1.494,-5.628 2.208,-8.374 1.241,-4.771 2.524,-9.705 3.94,-14.558 1.979,-6.781 4.4,-13.979 10.233,-20.872 6.286,-7.428 18.602,-12.147 37.652,-14.428 14.694,-1.759 30.794,-2.878 52.2,-3.627 19.312,-0.676 38.968,-1.276 57.976,-1.857 5.374,-0.164 10.748,-0.328 16.122,-0.494 -3.535,-0.103 -7.07,-0.203 -10.605,-0.304 -16.705,-0.475 -33.978,-0.967 -50.913,-1.658 -18.894,-0.771 -38.094,-1.867 -57.064,-3.259 -26.384,-1.936 -42.433,-8.14 -47.7,-18.437 -3.846,-7.518 -6.533,-15.222 -9.131,-22.673 l -0.348,-0.996 c -1.301,-3.727 -2.225,-7.514 -3.118,-11.176 -0.464,-1.901 -0.943,-3.866 -1.468,-5.79 -0.085,-0.313 -0.37,-0.721 -0.645,-1.115 -0.053,-0.077 -0.107,-0.154 -0.16,-0.231 l -0.183,-0.001 -0.116,-0.001 c -0.045,0.083 -0.091,0.165 -0.138,0.247 -0.284,0.507 -0.552,0.985 -0.672,1.419 -0.744,2.699 -1.442,5.45 -2.117,8.112 -1.466,5.778 -2.982,11.753 -5.071,17.621 -2.111,5.929 -5.222,11.866 -9.247,17.648 -5.071,7.285 -17.656,12.181 -37.403,14.553 -18.963,2.277 -38.121,3.165 -56,3.785 -18.218,0.631 -36.756,1.202 -54.684,1.754 -5.307,0.163 -10.615,0.327 -15.921,0.492 5.103,0.154 10.207,0.305 15.311,0.455 19.196,0.567 39.046,1.152 58.51,1.95 15.186,0.622 31.319,1.69 49.319,3.265 22.009,1.926 36.46,7.443 41.79,15.957 3.655,5.838 6.66,12.144 9.185,19.28 1.858,5.25 3.186,10.595 4.47,15.763 0.602,2.42 1.223,4.921 1.89,7.374 0.111,0.41 0.362,0.864 0.628,1.344 0.041,0.074 0.082,0.149 0.122,0.223 l 0.189,0.004 z" style="fill-opacity: 1; fill-rule: nonzero; stroke: none; fill: rgb(255, 255, 255);" transform="matrix(1.3333333,0,0,-1.3333333,562.24253,308.00707)" clip-path="url(#clipPath1)" id="path6"/><path d="m 0,0 c -0.413,-0.01 -0.826,-0.019 -1.239,-0.029 -0.3,-0.609 -0.714,-1.213 -0.881,-1.827 -1.667,-6.135 -2.894,-12.293 -5.056,-18.402 -1.808,-5.109 -4.115,-10.215 -7.252,-15.224 -4.148,-6.626 -15.505,-10.852 -32.733,-12.359 -12.952,-1.134 -26.111,-2.062 -39.31,-2.603 -22.673,-0.929 -45.45,-1.481 -68.18,-2.207 -1.197,-0.038 -2.363,-0.219 -3.543,-0.334 0.012,-0.138 0.023,-0.277 0.035,-0.416 1.1,-0.088 2.19,-0.222 3.302,-0.258 21.942,-0.697 43.899,-1.33 65.826,-2.09 15.07,-0.522 30.058,-1.267 44.609,-3.014 14.966,-1.798 25.236,-5.465 29.28,-11.274 3.172,-4.556 5.616,-9.219 7.28,-13.892 2.42,-6.797 3.836,-13.647 5.718,-20.473 0.177,-0.645 0.618,-1.278 0.937,-1.917 0.383,0.002 0.766,0.003 1.149,0.005 0.335,0.553 0.826,1.099 0.979,1.66 1.226,4.494 2.08,9.006 3.643,13.482 2.191,6.278 4.341,12.572 7.518,18.783 4.032,7.881 16.875,12.77 37.404,14.276 15.052,1.105 30.262,1.978 45.499,2.599 19.755,0.807 39.606,1.258 59.414,1.874 0.885,0.028 1.746,0.169 2.619,0.257 -0.027,0.165 -0.055,0.331 -0.082,0.496 -1.154,0.082 -2.299,0.202 -3.463,0.239 -22.843,0.721 -45.704,1.37 -68.529,2.169 -14.054,0.492 -28.012,1.265 -41.578,2.889 -14.95,1.79 -24.676,5.505 -29.524,11.234 -4.509,5.328 -6.394,10.834 -8.007,16.359 -1.776,6.088 -3.251,12.188 -4.9,18.281 C 0.778,-1.138 0.319,-0.572 0,0 m -0.445,-0.808 c 0.034,-0.055 0.069,-0.109 0.104,-0.164 0.221,-0.347 0.431,-0.675 0.506,-0.953 0.602,-2.225 1.191,-4.49 1.761,-6.68 0.99,-3.807 2.013,-7.743 3.143,-11.615 1.579,-5.41 3.51,-11.152 8.164,-16.651 5.015,-5.926 14.841,-9.692 30.038,-11.511 11.724,-1.403 24.568,-2.296 41.645,-2.894 15.406,-0.539 31.086,-1.018 46.249,-1.481 4.289,-0.131 8.578,-0.262 12.867,-0.395 -2.821,-0.082 -5.643,-0.162 -8.465,-0.242 -13.325,-0.379 -27.105,-0.771 -40.614,-1.322 C 79.877,-55.332 64.56,-56.207 49.427,-57.317 28.378,-58.862 15.575,-63.81 11.372,-72.026 8.304,-78.023 6.161,-84.17 4.088,-90.114 L 3.81,-90.909 c -1.038,-2.973 -1.775,-5.994 -2.487,-8.916 -0.37,-1.516 -0.753,-3.084 -1.171,-4.619 -0.069,-0.25 -0.295,-0.575 -0.515,-0.89 -0.043,-0.061 -0.085,-0.123 -0.127,-0.184 l -0.145,-0.001 h -0.094 c -0.036,0.065 -0.073,0.131 -0.11,0.197 -0.227,0.404 -0.441,0.785 -0.536,1.132 -0.594,2.153 -1.151,4.348 -1.689,6.471 -1.17,4.61 -2.38,9.377 -4.046,14.058 -1.684,4.73 -4.166,9.467 -7.377,14.079 -4.046,5.813 -14.086,9.719 -29.84,11.611 -15.128,1.817 -30.413,2.525 -44.677,3.019 -14.539,0.504 -29.334,0.96 -43.642,1.4 -4.229,0.131 -8.458,0.261 -12.687,0.392 4.071,0.124 8.142,0.244 12.213,0.364 15.316,0.451 31.153,0.919 46.682,1.555 12.116,0.496 24.986,1.348 39.347,2.605 17.558,1.536 29.087,5.938 33.339,12.73 2.916,4.658 5.313,9.689 7.328,15.382 1.483,4.189 2.542,8.453 3.567,12.576 0.479,1.93 0.975,3.926 1.507,5.883 0.089,0.326 0.289,0.688 0.501,1.072 0.033,0.059 0.065,0.118 0.098,0.177 z" style="fill-opacity: 1; fill-rule: nonzero; stroke: none; fill: rgb(255, 255, 255);" transform="matrix(1.3333333,0,0,-1.3333333,562.04373,325.97173)" clip-path="url(#clipPath2)" id="path7"/><path d="m 0,0 c -0.308,-0.007 -0.617,-0.014 -0.925,-0.022 -0.224,-0.454 -0.533,-0.905 -0.658,-1.364 -1.244,-4.58 -2.16,-9.177 -3.774,-13.737 -1.35,-3.814 -3.072,-7.626 -5.414,-11.366 -3.097,-4.946 -11.576,-8.101 -24.437,-9.227 -9.669,-0.846 -19.493,-1.539 -29.346,-1.943 -16.927,-0.693 -33.931,-1.105 -50.9,-1.647 -0.893,-0.029 -1.764,-0.164 -2.645,-0.249 0.009,-0.104 0.018,-0.207 0.026,-0.311 0.822,-0.066 1.635,-0.166 2.465,-0.193 16.381,-0.52 32.773,-0.993 49.142,-1.56 11.251,-0.39 22.44,-0.946 33.303,-2.25 11.173,-1.342 18.84,-4.08 21.859,-8.417 2.368,-3.401 4.193,-6.882 5.435,-10.371 1.807,-5.074 2.864,-10.188 4.268,-15.284 0.133,-0.481 0.462,-0.954 0.7,-1.431 0.286,0.001 0.572,0.002 0.858,0.003 0.25,0.413 0.617,0.822 0.731,1.24 0.915,3.355 1.553,6.724 2.719,10.065 1.636,4.687 3.241,9.386 5.613,14.022 3.01,5.884 12.598,9.534 27.923,10.658 11.237,0.825 22.593,1.476 33.968,1.941 14.747,0.601 29.567,0.939 44.354,1.398 0.661,0.021 1.305,0.126 1.956,0.192 -0.021,0.123 -0.041,0.247 -0.062,0.371 -0.861,0.06 -1.716,0.15 -2.584,0.178 -17.054,0.538 -34.12,1.023 -51.16,1.619 -10.492,0.368 -20.913,0.945 -31.04,2.157 -11.161,1.336 -18.422,4.11 -22.041,8.387 -3.367,3.977 -4.774,8.088 -5.978,12.213 C 3.03,-10.384 1.929,-5.83 0.698,-1.281 0.581,-0.85 0.238,-0.427 0,0 m -0.332,-0.604 c 0.026,-0.04 0.051,-0.081 0.077,-0.121 0.166,-0.26 0.322,-0.505 0.378,-0.712 0.45,-1.662 0.882,-3.325 1.315,-4.989 0.739,-2.841 1.503,-5.779 2.347,-8.669 1.178,-4.039 2.62,-8.326 6.094,-12.431 3.744,-4.424 11.079,-7.235 22.425,-8.593 8.752,-1.048 18.341,-1.714 31.09,-2.161 11.503,-0.402 23.21,-0.76 34.532,-1.106 3.2,-0.098 6.4,-0.195 9.6,-0.294 -2.106,-0.061 -4.212,-0.121 -6.318,-0.181 C 91.26,-40.144 80.972,-40.437 70.887,-40.848 59.632,-41.308 48.197,-41.961 36.9,-42.79 21.186,-43.943 11.627,-47.637 8.49,-53.771 6.2,-58.248 4.599,-62.836 3.052,-67.273 l -0.207,-0.595 c -0.775,-2.219 -1.325,-4.475 -1.858,-6.656 -0.276,-1.132 -0.561,-2.302 -0.874,-3.448 -0.051,-0.187 -0.22,-0.43 -0.384,-0.664 -0.032,-0.046 -0.064,-0.092 -0.095,-0.138 l -0.109,-0.001 h -0.069 c -0.027,0.049 -0.055,0.098 -0.082,0.148 -0.17,0.301 -0.33,0.586 -0.401,0.844 -0.443,1.607 -0.858,3.246 -1.261,4.831 -0.873,3.442 -1.776,7.001 -3.02,10.495 -1.257,3.532 -3.11,7.068 -5.507,10.511 -3.021,4.339 -10.516,7.255 -22.277,8.668 -11.294,1.356 -22.705,1.885 -33.353,2.254 -10.853,0.376 -21.897,0.716 -32.577,1.045 -3.158,0.097 -6.317,0.195 -9.475,0.293 3.04,0.092 6.08,0.182 9.121,0.271 11.432,0.338 23.254,0.686 34.846,1.161 9.044,0.371 18.652,1.007 29.374,1.945 13.109,1.147 21.715,4.433 24.89,9.504 2.177,3.477 3.966,7.233 5.47,11.483 1.107,3.127 1.898,6.31 2.663,9.388 0.358,1.441 0.728,2.931 1.125,4.392 0.066,0.244 0.216,0.514 0.374,0.801 0.025,0.044 0.049,0.088 0.073,0.132 z" style="fill-opacity: 1; fill-rule: nonzero; stroke: none; fill: rgb(255, 255, 255);" transform="matrix(1.3333333,0,0,-1.3333333,561.84507,343.9364)" clip-path="url(#clipPath3)" id="path8"/><path d="m 0,0 c -0.204,-0.005 -0.407,-0.01 -0.611,-0.014 -0.148,-0.301 -0.352,-0.598 -0.434,-0.901 -0.822,-3.025 -1.427,-6.062 -2.493,-9.074 -0.892,-2.519 -2.03,-5.037 -3.576,-7.507 -2.046,-3.267 -7.646,-5.351 -16.141,-6.094 -6.386,-0.559 -12.874,-1.017 -19.383,-1.283 -11.18,-0.459 -22.411,-0.731 -33.619,-1.088 -0.59,-0.019 -1.165,-0.109 -1.747,-0.165 l 0.017,-0.205 c 0.543,-0.044 1.081,-0.11 1.629,-0.127 10.819,-0.344 21.646,-0.656 32.458,-1.031 7.431,-0.258 14.821,-0.625 21.996,-1.487 7.379,-0.886 12.444,-2.694 14.438,-5.559 1.564,-2.246 2.769,-4.545 3.589,-6.849 1.194,-3.352 1.892,-6.73 2.82,-10.096 0.087,-0.317 0.305,-0.63 0.462,-0.945 0.189,10e-4 0.378,0.002 0.567,0.002 0.165,0.273 0.407,0.543 0.482,0.819 0.605,2.216 1.026,4.441 1.796,6.648 1.081,3.096 2.141,6.199 3.708,9.262 1.988,3.886 8.321,6.296 18.443,7.039 7.422,0.545 14.922,0.975 22.435,1.282 9.741,0.397 19.53,0.62 29.296,0.924 0.437,0.013 0.862,0.083 1.292,0.126 -0.014,0.082 -0.027,0.163 -0.041,0.245 -0.569,0.04 -1.133,0.1 -1.707,0.118 -11.264,0.355 -22.536,0.676 -33.791,1.07 -6.93,0.242 -13.812,0.623 -20.502,1.424 -7.371,0.883 -12.167,2.715 -14.558,5.539 C 4.602,-15.3 3.672,-12.584 2.877,-9.86 2.001,-6.859 1.274,-3.851 0.461,-0.846 0.384,-0.561 0.157,-0.282 0,0 m -0.219,-0.399 c 0.017,-0.026 0.034,-0.053 0.051,-0.08 0.109,-0.171 0.212,-0.333 0.249,-0.47 0.297,-1.098 0.583,-2.196 0.868,-3.294 0.489,-1.877 0.994,-3.818 1.551,-5.727 0.778,-2.668 1.73,-5.499 4.025,-8.211 2.473,-2.922 7.318,-4.778 14.812,-5.676 5.781,-0.692 12.114,-1.132 20.534,-1.427 7.598,-0.266 15.33,-0.502 22.808,-0.73 2.114,-0.065 4.228,-0.129 6.342,-0.195 -1.391,-0.04 -2.782,-0.079 -4.173,-0.119 -6.571,-0.187 -13.366,-0.38 -20.028,-0.652 -7.432,-0.303 -14.985,-0.735 -22.448,-1.282 -10.379,-0.762 -16.692,-3.202 -18.764,-7.253 -1.513,-2.958 -2.57,-5.989 -3.592,-8.92 L 1.879,-44.826 C 1.367,-46.292 1.004,-47.782 0.652,-49.223 0.467,-49.982 0.282,-50.742 0.075,-51.5 0.041,-51.624 -0.071,-51.784 -0.179,-51.939 -0.2,-51.969 -0.221,-52 -0.242,-52.03 h -0.071 -0.046 c -0.018,0.032 -0.037,0.064 -0.055,0.097 -0.112,0.199 -0.217,0.387 -0.264,0.558 -0.293,1.061 -0.567,2.144 -0.833,3.191 -0.577,2.273 -1.173,4.623 -1.995,6.932 -0.83,2.332 -2.054,4.668 -3.637,6.942 -1.995,2.866 -6.946,4.792 -14.714,5.725 -7.46,0.896 -14.996,1.245 -22.03,1.489 -7.169,0.248 -14.465,0.473 -21.52,0.69 -2.085,0.064 -4.17,0.129 -6.255,0.194 2.007,0.06 4.015,0.12 6.023,0.179 7.551,0.222 15.36,0.453 23.017,0.767 5.975,0.244 12.321,0.665 19.402,1.284 8.658,0.758 14.342,2.928 16.439,6.277 1.438,2.297 2.62,4.778 3.614,7.585 0.731,2.065 1.253,4.168 1.758,6.201 0.24,0.967 0.481,1.934 0.743,2.901 0.044,0.161 0.143,0.339 0.247,0.528 0.017,0.029 0.033,0.059 0.049,0.088 z" style="fill-opacity: 1; fill-rule: nonzero; stroke: none; fill: rgb(255, 255, 255);" transform="matrix(1.3333333,0,0,-1.3333333,561.6464,361.9012)" clip-path="url(#clipPath4)" id="path9"/><path d="m 0,0 c -0.099,-0.002 -0.198,-0.005 -0.297,-0.007 -0.072,-0.146 -0.171,-0.291 -0.211,-0.438 -0.4,-1.47 -0.693,-2.946 -1.212,-4.409 -0.433,-1.225 -0.986,-2.448 -1.737,-3.649 -0.994,-1.587 -3.716,-2.6 -7.844,-2.961 -3.104,-0.272 -6.257,-0.494 -9.42,-0.624 -5.434,-0.223 -10.892,-0.355 -16.339,-0.529 -0.286,-0.009 -0.566,-0.052 -0.849,-0.08 0.003,-0.033 0.006,-0.066 0.009,-0.1 0.263,-0.021 0.525,-0.053 0.791,-0.061 5.258,-0.168 10.52,-0.319 15.774,-0.501 3.611,-0.126 7.203,-0.304 10.69,-0.723 3.586,-0.43 6.047,-1.309 7.017,-2.701 0.76,-1.092 1.345,-2.209 1.744,-3.329 0.58,-1.629 0.919,-3.271 1.37,-4.906 0.043,-0.155 0.148,-0.307 0.225,-0.46 0.092,0.001 0.183,0.001 0.275,0.001 0.08,0.133 0.198,0.264 0.235,0.398 0.293,1.077 0.498,2.158 0.873,3.231 0.525,1.505 1.04,3.013 1.801,4.501 0.966,1.889 4.044,3.06 8.964,3.421 3.607,0.265 7.251,0.474 10.903,0.623 4.734,0.193 9.491,0.302 14.237,0.449 0.212,0.007 0.419,0.04 0.628,0.062 -0.007,0.039 -0.013,0.079 -0.02,0.119 -0.276,0.019 -0.551,0.048 -0.83,0.057 -5.474,0.173 -10.952,0.328 -16.421,0.52 -3.368,0.118 -6.713,0.303 -9.964,0.692 -3.583,0.429 -5.913,1.319 -7.075,2.692 -1.081,1.277 -1.532,2.596 -1.919,3.92 C 0.973,-3.333 0.619,-1.871 0.224,-0.411 0.186,-0.273 0.076,-0.137 0,0 m -0.107,-0.194 c 0.009,-0.013 0.017,-0.026 0.025,-0.039 0.053,-0.083 0.103,-0.162 0.121,-0.228 0.145,-0.534 0.284,-1.067 0.422,-1.601 0.238,-0.912 0.483,-1.856 0.754,-2.783 0.378,-1.297 0.841,-2.673 1.956,-3.991 1.202,-1.42 3.556,-2.322 7.198,-2.758 2.81,-0.336 5.888,-0.55 9.98,-0.693 3.691,-0.13 7.386,-0.243 11.081,-0.355 1.028,-0.032 2.057,-0.063 3.085,-0.095 -0.676,-0.02 -1.353,-0.039 -2.029,-0.058 -3.193,-0.091 -6.495,-0.185 -9.732,-0.317 -3.612,-0.147 -7.283,-0.357 -10.909,-0.623 C 6.8,-14.105 3.732,-15.291 2.725,-17.26 1.99,-18.697 1.476,-20.17 0.98,-21.594 l -0.067,-0.191 c -0.249,-0.712 -0.425,-1.436 -0.596,-2.137 -0.09,-0.369 -0.18,-0.738 -0.281,-1.106 -0.016,-0.06 -0.07,-0.138 -0.123,-0.214 -0.01,-0.014 -0.02,-0.029 -0.031,-0.044 h -0.057 c -0.008,0.016 -0.017,0.031 -0.026,0.047 -0.054,0.097 -0.106,0.188 -0.129,0.271 -0.142,0.517 -0.273,1.034 -0.404,1.551 -0.281,1.105 -0.57,2.247 -0.97,3.369 -0.403,1.133 -0.998,2.269 -1.768,3.374 -0.969,1.393 -3.375,2.329 -7.15,2.782 -3.625,0.436 -7.288,0.605 -10.706,0.724 -3.484,0.121 -6.971,0.228 -10.459,0.335 -1.013,0.031 -2.026,0.063 -3.04,0.094 0.976,0.03 1.951,0.058 2.927,0.087 3.67,0.108 7.465,0.22 11.187,0.373 2.903,0.119 5.987,0.323 9.428,0.624 4.208,0.368 6.971,1.423 7.99,3.051 0.698,1.116 1.273,2.322 1.756,3.686 0.355,1.004 0.609,2.025 0.854,3.013 0.117,0.471 0.234,0.941 0.361,1.41 0.022,0.078 0.07,0.165 0.121,0.257 0.007,0.014 0.015,0.028 0.023,0.043 h 0.034 z" style="fill-opacity: 1; fill-rule: nonzero; stroke: none; fill: rgb(255, 255, 255);" transform="matrix(1.3333333,0,0,-1.3333333,561.44773,379.86587)" clip-path="url(#clipPath5)" id="path10"/></g></g></svg>